PathFileType	4	(X/Y/Z)	C:/Users/opensim2020/Desktop/walking_exp_matlab/subject01_walking12_straight_03.trc																																																																																																																																		
DataRate	CameraRate	NumFrames	NumMarkers	Units	OrigDataRate	OrigDataStartFrame	OrigNumFrames																																																																																																																														
100	100	7	44	mm	100	1798	172																																																																																																																														
Frame#	Time	LFHD			RFHD			LBHD			RBHD			C7			T10			CLAV			STRN			RBAK			LSHO			LUPA			LELB			LFRM			LWRA			LWRB			LFIN			RSHO			RUPA			RELB			RFRM			RWRA			RWRB			RFIN			LASI			RASI			LPSI			RPSI			LTHI			LKNE			LTIB			LANK			LHEE			LTOE			RTHI			RKNE			RTIB			RANK			RHEE			RTOE			*39			*40			*41			*42			*43		
		X1	Y1	Z1	X2	Y2	Z2	X3	Y3	Z3	X4	Y4	Z4	X5	Y5	Z5	X6	Y6	Z6	X7	Y7	Z7	X8	Y8	Z8	X9	Y9	Z9	X10	Y10	Z10	X11	Y11	Z11	X12	Y12	Z12	X13	Y13	Z13	X14	Y14	Z14	X15	Y15	Z15	X16	Y16	Z16	X17	Y17	Z17	X18	Y18	Z18	X19	Y19	Z19	X20	Y20	Z20	X21	Y21	Z21	X22	Y22	Z22	X23	Y23	Z23	X24	Y24	Z24	X25	Y25	Z25	X26	Y26	Z26	X27	Y27	Z27	X28	Y28	Z28	X29	Y29	Z29	X30	Y30	Z30	X31	Y31	Z31	X32	Y32	Z32	X33	Y33	Z33	X34	Y34	Z34	X35	Y35	Z35	X36	Y36	Z36	X37	Y37	Z37	X38	Y38	Z38	X39	Y39	Z39	X40	Y40	Z40	X41	Y41	Z41	X42	Y42	Z42	X43	Y43	Z43	X44	Y44	Z44
																																																																																																																																					
22	0.21	-564.01563	1651.22803	-1084.09692	-546.39465	1658.51038	-972.19165	-677.11865	1599.84302	-1071.22266	-661.1582	1605.86658	-951.73273	-706.65741	1411.41711	-1026.50476	-744.05756	1118.3064	-1008.94379	-562.81848	1341.26074	-1026.89355	-521.58636	1186.73474	-1024.71777	-762.07172	1221.42542	-938.98517	-629.75397	1367.65308	-1187.69788	-688.38251	1183.34375	-1258.00342	-724.66986	1038.56409	-1242.26233	-713.93005	925.54871	-1262.67297	-660.84741	795.66547	-1246.30823	-718.87775	802.58508	-1262.10107	-691.51715	721.7804	-1270.15552	-620.7171	1373.7196	-874.57678	-649.18634	1177.41565	-759.10126	-627.76312	1051.11853	-745.88013	-549.00409	953.11273	-731.28918	-433.70456	883.72729	-777.80701	-463.9838	865.97058	-730.79102	-395.94891	816.55945	-743.6026	-559.81842	915.21967	-1102.94141	-582.86969	909.48578	-885.78186	-751.5426	923.065	-1074.10486	-764.77008	930.8465	-931.52795	-505.28561	604.23016	-1172.95618	-478.24942	474.83151	-1162.39343	-484.95953	286.63831	-1176.02368	-443.14346	68.74499	-1138.0647	-478.75058	33.38046	-1083.10608	-294.48172	57.03027	-1145.54883	-712.90869	588.92291	-842.85651	-748.47229	430.94498	-868.8327	-862.2066	295.23053	-865.13977	-966.35028	115.37259	-912.51276	-1027.20776	100.10577	-960.90656	-851.36029	29.88848	-924	-560.8407	1690.68884	-994.44769	1973.10229	1024.01709	-3102.44312	2013.12488	1022.2594	-3138.53003	NaN	NaN	NaN	NaN	NaN	NaN
23	0.22	-552.95667	1651.69019	-1086.88696	-535.99969	1658.67786	-975.13086	-666.23499	1600.58838	-1074.65894	-650.84076	1606.42578	-955.31531	-696.09888	1411.54956	-1030.16736	-732.67426	1118.37488	-1010.96423	-552.24194	1341.68628	-1030.20203	-510.41858	1187.40759	-1026.98865	-751.38623	1221.09167	-942.50964	-618.62317	1366.83301	-1190.96277	-676.17639	1181.89966	-1260.88306	-712.2915	1037.22742	-1244.77161	-701.70105	924.15656	-1264.92322	-648.84137	794.32642	-1248.16602	-706.83185	801.19788	-1264.17053	-679.55627	720.44226	-1272.01367	-611.08911	1374.07849	-877.51764	-639.98053	1177.86328	-761.77911	-618.72797	1051.43481	-748.38422	-540.40979	953.07507	-733.19458	-425.31204	883.00024	-779.35547	-455.20258	865.56299	-732.06396	-388.15509	815.83807	-745.01129	-547.78583	915.09747	-1104.21606	-571.01489	909.16034	-887.29108	-739.41046	923.82782	-1076.03308	-753.59924	931.18091	-933.18536	-493.88397	605.20056	-1174.97278	-467.06821	475.83423	-1163.22571	-475.64911	288.2384	-1176.46191	-439.05133	68.74441	-1138.90527	-476.73013	34.69343	-1084.41052	-290.93243	52.62018	-1143.88867	-700.82898	588.45508	-844.16772	-736.89612	430.3483	-869.64349	-854.12567	297.72916	-865.74274	-962.11859	119.77634	-912.0752	-1023.30963	106.98006	-960.55566	-850.92114	29.97917	-924.09033	-550.21631	1691.06787	-997.15997	1973.03967	1024.01489	-3102.58594	NaN	NaN	NaN	NaN	NaN	NaN	NaN	NaN	NaN
24	0.23	-541.84784	1652.28625	-1089.77356	-525.34491	1659.02917	-977.86121	-655.30249	1601.53967	-1078.07349	-640.38861	1607.18933	-958.64984	-685.50317	1412.13098	-1033.63196	-721.30377	1118.68774	-1012.80035	-541.66125	1342.39221	-1032.95313	-499.19794	1188.36365	-1029.36072	-740.95691	1221.34167	-945.74664	-607.59619	1366.24011	-1194.03638	-663.89532	1180.71777	-1263.64795	-699.68762	1035.97229	-1247.25037	-689.06421	922.98169	-1267.23975	-636.30475	793.2049	-1250.2002	-694.25201	800.04504	-1266.40369	-666.95215	719.3443	-1273.91113	-601.07733	1374.88916	-880.40674	-630.95673	1178.59436	-764.63983	-609.90137	1052.06873	-751.06323	-532.1842	953.14691	-735.27557	-417.45383	882.28235	-780.82416	-447.69962	865.16125	-733.71521	-380.87857	815.14404	-746.35321	-535.83209	915.49335	-1105.65137	-558.88593	909.3075	-889.16168	-727.40778	925.25977	-1077.63074	-740.99207	930.89722	-934.62433	-483.97858	606.27496	-1178.0575	-455.86487	477.8313	-1163.56641	-465.34982	289.79602	-1178.6748	-435.78387	69.03278	-1139.77039	-475.375	35.90907	-1085.32263	-288.44348	47.32658	-1142.82361	-688.01196	588.23474	-845.47467	-724.17773	429.806	-870.39368	-845.14056	300.5957	-866.38556	-957.25079	125.05994	-911.9007	-1018.41748	114.36005	-960.79437	-850.10193	29.93977	-923.97821	-539.32062	1691.63232	-999.90887	1973.14685	1023.93237	-3102.16016	NaN	NaN	NaN	NaN	NaN	NaN	NaN	NaN	NaN
25	0.24	-530.79126	1652.93018	-1092.8573	-514.66559	1659.63391	-980.91608	-644.36871	1602.53992	-1081.47473	-629.86841	1608.1615	-961.92206	-674.65698	1412.7345	-1036.87476	-709.94336	1119.1626	-1014.62421	-531.01758	1343.34973	-1035.78699	-487.94363	1189.51123	-1031.7168	-729.86847	1221.68445	-948.80774	-596.69385	1365.96533	-1197.02209	-651.5036	1179.80505	-1266.33594	-686.83356	1035.05859	-1249.85266	-676.06927	922.09668	-1269.69446	-623.22534	792.34546	-1252.43372	-681.14044	799.18695	-1268.75037	-653.80035	718.54053	-1276.28357	-591.01691	1375.64844	-883.47546	-622.19946	1179.53967	-767.67212	-601.19409	1053.04553	-753.90485	-524.29266	953.48267	-737.48663	-410.07401	881.59613	-782.32709	-440.61951	864.72845	-735.33154	-374.23892	814.12189	-747.52917	-523.99994	916.39972	-1107.16187	-547.3244	909.6153	-890.8858	-715.64276	926.80597	-1079.02197	-729.04388	931.2821	-935.84637	-474.67844	607.26855	-1180.38184	-444.87112	479.39948	-1163.25159	-455.01337	290.84747	-1180.95825	-433.83539	69.07758	-1139.55762	-474.25009	36.47828	-1085.67749	-287.01859	44.00387	-1142.83704	-674.37	588.11298	-846.68188	-710.66138	429.87894	-870.71124	-835.73352	304.05795	-867.3515	-951.60638	130.85881	-912.02289	-1011.99988	122.80524	-961.8418	-849.43103	30.13561	-923.73279	-528.34247	1692.3645	-1002.84253	1972.85535	1023.96124	-3102.7666	NaN	NaN	NaN	NaN	NaN	NaN	NaN	NaN	NaN
26	0.25	-519.66272	1653.68579	-1095.79126	-503.31622	1660.9325	-983.42749	-633.45502	1603.60291	-1084.86914	-619.30829	1609.21411	-965.25446	-663.93848	1413.29102	-1039.91345	-698.77448	1119.96606	-1016.37207	-520.45569	1344.32581	-1038.03223	-476.66229	1190.70886	-1034.00891	-719.32037	1222.53589	-951.41083	-585.95917	1365.99817	-1199.90784	-639.23016	1179.21802	-1268.90979	-673.78015	1034.38525	-1252.34058	-662.58514	921.63757	-1272.15063	-609.57147	791.91742	-1254.84302	-667.41571	798.62866	-1271.27197	-639.93579	718.0741	-1278.703	-580.69348	1377.03296	-886.11322	-613.53571	1180.69727	-770.73895	-592.71368	1054.33911	-756.74017	-516.85486	954.12128	-739.73029	-403.32318	880.78198	-783.82336	-434.18182	864.33051	-736.86292	-368.10114	813.18622	-748.58264	-512.27637	917.85522	-1108.92322	-535.58124	910.27148	-892.96985	-704.10449	928.28967	-1080.19666	-717.18793	931.98523	-936.85864	-465.10898	608.10291	-1181.44739	-434.61703	479.96423	-1163.23267	-445.92517	290.88879	-1182.93787	-432.39053	69.24865	-1139.07349	-473.22037	36.86814	-1085.4021	-285.61679	41.67612	-1143.27258	-659.89362	588.00128	-847.86902	-695.28101	429.67764	-870.63007	-824.79303	307.81079	-868.25635	-944.99396	137.4761	-912.42084	-1003.94043	131.68436	-963.17621	-848.42889	30.52982	-923.88501	-517.28326	1693.15942	-1005.89563	1972.82898	1023.92352	-3103.01978	NaN	NaN	NaN	NaN	NaN	NaN	NaN	NaN	NaN
27	0.26	-508.62607	1654.55835	-1098.89758	-492.98672	1661.56177	-986.70636	-622.48004	1604.64197	-1088.06531	-608.70837	1610.47449	-968.51886	-653.58405	1414.08826	-1042.90686	-687.67816	1120.86157	-1018.19525	-509.61694	1345.42041	-1040.82068	-465.64426	1191.96448	-1036.15674	-708.48901	1223.5293	-953.85852	-575.29437	1366.27319	-1202.52441	-626.95477	1178.95459	-1271.28955	-660.45862	1034.14893	-1254.91406	-648.77539	921.39899	-1274.71936	-595.37115	791.86029	-1257.31213	-653.17731	798.37885	-1273.94214	-625.43115	717.97192	-1281.39612	-570.5	1378.21863	-888.98413	-604.83856	1182.0061	-773.77374	-584.41028	1055.85291	-759.50452	-509.69336	954.9068	-742.03107	-396.71851	880.05182	-785.10718	-428.29187	863.93756	-738.59326	-362.62823	812.05225	-749.6524	-501.00055	919.51923	-1110.84497	-523.89099	911.25635	-895.31799	-692.90948	929.67542	-1081.29224	-705.33618	932.71497	-937.99738	-454.90823	608.61816	-1182.05725	-425.09756	479.4342	-1163.51221	-438.70871	290.16385	-1183.99255	-430.81036	69.25299	-1138.58911	-472.5892	37.24033	-1085.36731	-284.06015	39.98434	-1142.56213	-644.91394	587.93549	-849.05316	-678.89368	429.31082	-870.13361	-812.20123	311.20789	-869.15503	-936.79254	144.02039	-913.23853	-994.23212	140.88583	-965.21838	-847.25732	30.5407	-924.16833	-506.4437	1694.16809	-1009.01599	1972.94275	1023.99353	-3102.56445	2013.14575	1022.18964	-3138.43262	NaN	NaN	NaN	NaN	NaN	NaN
28	0.27	-497.61783	1655.38599	-1101.83032	-482.14178	1662.62439	-989.78406	-611.58264	1605.80981	-1091.23865	-598.01276	1611.87061	-971.57983	-643.12769	1414.89307	-1045.72192	-676.65295	1121.84009	-1020.03723	-498.94208	1346.66577	-1043.53235	-454.68915	1193.21155	-1038.16687	-697.64777	1224.63245	-956.12805	-564.5603	1366.82263	-1205.07727	-614.8299	1179.01465	-1273.5675	-646.99286	1034.1377	-1257.42444	-634.53253	921.47668	-1277.31287	-580.62073	792.21124	-1259.87634	-638.39752	798.47882	-1276.64551	-610.2818	718.21716	-1284.29553	-560.04608	1379.67664	-891.625	-596.12012	1183.50562	-776.75598	-576.2677	1057.47021	-762.26093	-502.84467	955.78058	-744.26556	-391.02539	879.08142	-786.93829	-423.27008	863.55762	-740.27374	-357.75568	810.88538	-750.73151	-489.96939	921.21075	-1113.14038	-512.28436	912.34601	-897.76733	-681.8631	930.91333	-1082.53784	-694.30939	933.95502	-939.20337	-444.49167	608.63202	-1182.64343	-416.48029	478.23663	-1164.05688	-433.15717	289.21713	-1184.3302	-429.24359	69.06562	-1138.04236	-472.21896	37.48024	-1085.38	-282.66458	38.5413	-1141.17993	-629.19971	587.62231	-850.10651	-661.13812	428.87589	-869.18475	-798.21899	314.79156	-869.9563	-927.09583	150.80925	-914.16718	-982.68634	150.32639	-967.83923	-845.63293	30.79583	-924.79907	-495.61533	1695.2323	-1012.25708	1973.03955	1024.10986	-3102.27734	2012.99084	1022.03424	-3138.86499	NaN	NaN	NaN	NaN	NaN	NaN
